<svg width="48" height="35" fill="none" xmlns="http://www.w3.org/2000/svg"><path d="M42.394 8.536a4.6 4.6 0 00-4.646 4.533 4.456 4.456 0 001.56 3.365l-5.86 2.055-8.34-9.683a4.535 4.535 0 003.1-4.256 4.646 4.646 0 00-9.29 0 4.543 4.543 0 003.046 4.242l-8.352 9.7-5.858-2.055a4.457 4.457 0 001.558-3.365 4.647 4.647 0 10-5.745 4.393v12.29c.007.083.024.163.05.242-.033.126-.05.257-.05.388 0 4.412 17.919 4.542 19.962 4.542 2.043 0 19.962-.13 19.962-4.542 0-.131-.018-.262-.05-.388a.899.899 0 00.05-.241V17.465a4.516 4.516 0 00-1.093-8.926l-.004-.003zm-21.22-3.984a2.385 2.385 0 112.387 2.328 2.362 2.362 0 01-2.386-2.328zm-7.59 16.276a1.155 1.155 0 001.247-.33l8.7-10.1 8.7 10.1a1.156 1.156 0 001.245.33l7.758-2.724v9.937c-4.885-2.122-16.11-2.2-17.7-2.2-1.591 0-12.82.079-17.7 2.2v-9.937l7.75 2.724zm9.944 11.889c-8.7 0-14.25-1.011-16.557-1.862a4.63 4.63 0 01-1-.474c.722-.521 3.06-1.232 6.966-1.732a93.169 93.169 0 0121.175 0c3.9.5 6.245 1.21 6.965 1.732-.31.198-.645.358-.995.474-2.302.849-7.846 1.862-16.554 1.862zM2.28 13.069a2.385 2.385 0 112.386 2.33 2.361 2.361 0 01-2.386-2.33zm40.113 2.33a2.329 2.329 0 112.386-2.33 2.362 2.362 0 01-2.386 2.329z" fill="#F16D7F"/></svg>