<svg width="27" height="25" fill="none" xmlns="http://www.w3.org/2000/svg"><path d="M5.498 22.185c.008-.433.143-.854.387-1.21.244-.356.588-.632.987-.792a2.163 2.163 0 012.362.502 2.204 2.204 0 01.454 2.39 2.183 2.183 0 01-2.01 1.349 2.184 2.184 0 01-1.55-.664 2.22 2.22 0 01-.63-1.575zm15.806 2.239a2.205 2.205 0 01-1.224-.35 2.233 2.233 0 01-.833-.971 2.256 2.256 0 01.388-2.428 2.202 2.202 0 013.397.149c.264.347.421.764.453 1.2a2.274 2.274 0 01-.53 1.628 2.167 2.167 0 01-1.49.773l-.16-.001zm-12.71-6.939a.96.96 0 01-.587-.202.973.973 0 01-.343-.52L3.737 2.194H.979a.974.974 0 01-.692-.289.991.991 0 010-1.395.974.974 0 01.692-.29h3.479a.96.96 0 01.586.203c.168.13.289.314.344.52l3.927 14.568h10.704l3.558-8.385h-11.86a.974.974 0 01-.691-.29.991.991 0 010-1.395.974.974 0 01.692-.289h13.335a.945.945 0 01.8.445 1.014 1.014 0 01.08.937l-4.392 10.358a.97.97 0 01-.882.592H8.594z" fill="#EF5B70"/></svg>