<svg width="40" height="40" fill="none" xmlns="http://www.w3.org/2000/svg"><path d="M19.994 37.024l-3.471 2.9-2.288-3.92-4.24 1.512-.822-4.48-4.493-.045.732-4.5-4.208-1.6 2.21-3.966L0 19.96l3.412-2.967-2.21-3.965 4.209-1.6-.733-4.495 4.494-.044.822-4.48 4.24 1.51L16.522 0l3.471 2.9L23.464 0l2.289 3.92 4.24-1.511.821 4.48 4.494.046-.732 4.495 4.208 1.6-2.21 3.966 3.412 2.965-3.412 2.967 2.209 3.966-4.209 1.6.733 4.494-4.495.045-.821 4.48-4.238-1.51-2.289 3.92-3.47-2.9zM21.2 35.54l1.761 1.471 1.161-1.99.792-1.356 1.468.523 2.151.768.417-2.273.285-1.555 1.561-.016 2.282-.021-.372-2.282-.254-1.56 1.459-.554 2.134-.813-1.12-2.01-.766-1.375 1.183-1.027 1.734-1.51-1.733-1.5-1.183-1.03.766-1.375 1.121-2.011-2.134-.811-1.459-.553.255-1.56.372-2.281-2.282-.023-1.56-.016-.285-1.554-.416-2.273-2.152.767-1.468.523-.793-1.357-1.162-1.99-1.762 1.47-1.205 1.006-1.205-1.005-1.761-1.471-1.161 1.989-.792 1.357-1.469-.523-2.15-.768-.418 2.274-.285 1.554-1.56.016-2.281.022.372 2.282.254 1.558-1.459.555-2.135.81 1.121 2.012.766 1.375-1.183 1.029-1.734 1.508 1.733 1.507 1.183 1.029-.766 1.375-1.121 2.01 2.133.81 1.46.555-.255 1.559-.371 2.284 2.281.023 1.56.016.285 1.555.417 2.272 2.152-.767 1.469-.523.792 1.357 1.162 1.99 1.761-1.471 1.205-1.005 1.204.998zm.118-12.521c0-2.927 1.565-4.555 3.459-4.555 2.006 0 3.3 1.563 3.3 4.33 0 3.059-1.585 4.577-3.415 4.577-1.779 0-3.324-1.45-3.344-4.352zm1.521-.088c-.023 1.85.682 3.258 1.872 3.258 1.277 0 1.85-1.385 1.85-3.3 0-1.765-.507-3.237-1.85-3.237-1.211-.004-1.872 1.45-1.872 3.278zm-7.645 4.4l8.415-14.719h1.233l-8.415 14.719h-1.233zM11.979 16.99c0-2.9 1.563-4.532 3.458-4.532 2 0 3.326 1.564 3.326 4.332 0 3.058-1.586 4.575-3.436 4.575-1.783 0-3.327-1.45-3.348-4.374v-.001zm1.542-.066c-.044 1.85.641 3.257 1.85 3.259 1.277 0 1.85-1.384 1.85-3.3 0-1.766-.507-3.238-1.85-3.238-1.209-.003-1.85 1.447-1.85 3.28v-.001z" fill="#F16D7F"/></svg>