<svg width="29" height="29" fill="none" xmlns="http://www.w3.org/2000/svg"><path d="M14.5 19.937c4.5 0 8.156-4.473 8.156-9.969C22.656 4.472 19 0 14.5 0a7.45 7.45 0 00-5.834 3 11.159 11.159 0 00-2.322 6.974c0 5.491 3.656 9.963 8.156 9.963zm0-18.124c3.5 0 6.344 3.659 6.344 8.156 0 4.497-2.846 8.156-6.344 8.156s-6.344-3.66-6.345-8.156C8.154 5.473 11 1.813 14.5 1.813zm6.344 16.312a.907.907 0 000 1.813 6.351 6.351 0 016.344 6.344.908.908 0 01-.906.906H2.72a.908.908 0 01-.906-.906 6.352 6.352 0 016.344-6.344.906.906 0 000-1.812A8.165 8.165 0 000 26.281 2.722 2.722 0 002.719 29h23.563A2.722 2.722 0 0029 26.281a8.166 8.166 0 00-8.156-8.156z" fill="#E8E8E8"/></svg>