<svg width="16" height="15" fill="none" xmlns="http://www.w3.org/2000/svg"><path d="M8.139 3.682a3.812 3.812 0 00-3.821 3.815 3.812 3.812 0 003.821 3.815 3.812 3.812 0 003.821-3.815 3.812 3.812 0 00-3.82-3.815zm0 6.295a2.487 2.487 0 01-2.484-2.48 2.485 2.485 0 014.968 0 2.487 2.487 0 01-2.484 2.48zm4.869-6.451c0 .494-.4.89-.891.89a.89.89 0 11.891-.89zm2.53.903c-.056-1.192-.329-2.248-1.203-3.118-.872-.87-1.93-1.142-3.123-1.202-1.23-.07-4.919-.07-6.15 0-1.19.056-2.247.329-3.122 1.199-.875.87-1.144 1.925-1.204 3.117-.07 1.229-.07 4.911 0 6.14.057 1.192.33 2.247 1.204 3.117.875.87 1.929 1.143 3.123 1.202 1.23.07 4.918.07 6.149 0 1.194-.056 2.251-.328 3.123-1.202.871-.87 1.144-1.925 1.204-3.117.07-1.229.07-4.908 0-6.136zm-1.589 7.454a2.514 2.514 0 01-1.417 1.414c-.98.389-3.309.299-4.393.299-1.084 0-3.416.086-4.393-.299a2.513 2.513 0 01-1.417-1.414c-.39-.98-.3-3.304-.3-4.386 0-1.083-.086-3.41.3-4.386a2.515 2.515 0 011.417-1.415c.98-.388 3.309-.299 4.393-.299 1.084 0 3.416-.086 4.393.299.652.259 1.154.76 1.417 1.415.39.979.3 3.303.3 4.386 0 1.082.09 3.41-.3 4.386z" fill="#000"/></svg>