<svg width="13" height="16" fill="none" xmlns="http://www.w3.org/2000/svg"><path d="M6.74.203C3.556.203.408 2.341.408 5.8c0 2.2 1.23 3.45 1.974 3.45.308 0 .485-.863.485-1.106 0-.29-.736-.91-.736-2.119 0-2.513 1.9-4.294 4.358-4.294 2.114 0 3.678 1.21 3.678 3.431 0 1.66-.661 4.772-2.803 4.772-.773 0-1.434-.562-1.434-1.368 0-1.182.82-2.325.82-3.544 0-2.069-2.915-1.694-2.915.806 0 .525.065 1.106.298 1.584-.428 1.857-1.304 4.622-1.304 6.535 0 .59.084 1.172.14 1.762.106.12.053.107.214.047 1.565-2.156 1.509-2.578 2.216-5.4.382.732 1.37 1.125 2.151 1.125 3.297 0 4.778-3.234 4.778-6.15 0-3.103-2.664-5.128-5.588-5.128z" fill="#fff"/></svg>