<svg width="46" height="32" fill="none" xmlns="http://www.w3.org/2000/svg"><path d="M30.287 27.243H14.81a5.562 5.562 0 01-10.987 0H1.886A1.869 1.869 0 01.03 25.367V1.877A1.869 1.869 0 011.886 0h25.551a1.868 1.868 0 011.856 1.877v1.905h7.121a.9.9 0 01.238.031c2.3.2 3.457 1.4 4.677 3.462l3.56 6.094c.084.145.129.31.13.477v12.458a.934.934 0 01-.93.938h-2.814a5.562 5.562 0 01-10.987 0zm1.778-.939a3.714 3.714 0 103.716-3.755 3.74 3.74 0 00-3.716 3.755zm-26.464 0a3.715 3.715 0 103.716-3.755A3.74 3.74 0 005.6 26.304h.001zm35.672-.938h1.886v-5.618h-2.736a.932.932 0 01-.929-.938v-1.847c0-.72.276-1.414.77-1.938h-6.379a.927.927 0 01-.229-.03 2.825 2.825 0 01-2.574-2.823v-4.7a.936.936 0 01.93-.939h6.482a3.354 3.354 0 00-2.578-.88h-6.623v19.709h.994a5.561 5.561 0 0110.987 0v.004zm-26.464 0h12.627V1.876H1.886v23.49h1.937a5.562 5.562 0 0110.987 0zm26.542-8.4v.909h1.808v-1.847h-.879a.934.934 0 00-.928.935v.003zm-8.413-4.792a.954.954 0 00.947.958c.064 0 .128.006.19.02H42.6l-2.766-4.736h-6.9l.004 3.758zm.093 14.132a2.766 2.766 0 012.75-2.777.938.938 0 010 1.876.9.9 0 10.891.9.928.928 0 011.857 0 2.75 2.75 0 11-5.5 0h.002zm-26.464 0a2.766 2.766 0 012.75-2.777.938.938 0 010 1.876.9.9 0 10.891.9.928.928 0 011.857 0 2.75 2.75 0 11-5.5 0h.002zM4.71 5.66a.938.938 0 110-1.876h19.9a.938.938 0 110 1.876H4.71z" fill="#F16D7F"/></svg>