<svg width="17" height="14" fill="none" xmlns="http://www.w3.org/2000/svg"><path d="M14.417 3.74c.01.143.01.285.01.427 0 4.335-3.277 9.33-9.267 9.33a9.16 9.16 0 01-5.002-1.472c.262.03.514.04.787.04a6.496 6.496 0 004.043-1.4A3.266 3.266 0 011.943 8.39c.202.03.403.051.615.051.293 0 .585-.04.857-.112A3.274 3.274 0 01.804 5.111v-.04c.433.243.937.395 1.472.416A3.283 3.283 0 01.824 2.756c0-.61.161-1.168.443-1.655a9.238 9.238 0 006.716 3.431 3.726 3.726 0 01-.08-.75c0-1.808 1.452-3.28 3.257-3.28a3.24 3.24 0 012.38 1.035 6.386 6.386 0 002.067-.791 3.266 3.266 0 01-1.432 1.807 6.494 6.494 0 001.875-.508 7.029 7.029 0 01-1.633 1.696z" fill="#fff"/></svg>